<mxfile host="app.diagrams.net" modified="2022-12-04T16:15:55.965Z" agent="5.0 (X11; Ubuntu)" version="20.6.0" etag="6lOsqgRDiPe_xaDabEUb" type="github">
  <diagram id="zjbsmMx9dNUYekVJXI4S" name="Page-1">
    <mxGraphModel dx="964" dy="659" grid="1" gridSize="10" guides="1" tooltips="1" connect="1" arrows="1" fold="1" page="0" pageScale="1" pageWidth="850" pageHeight="1100" math="0" shadow="0">
      <root>
        <mxCell id="0" />
        <mxCell id="1" parent="0" />
        <mxCell id="_Qzaa5entBogjLJZciO9-1" value="" style="rounded=0;whiteSpace=wrap;html=1;" vertex="1" parent="1">
          <mxGeometry x="160" y="120" width="680" height="210" as="geometry" />
        </mxCell>
        <mxCell id="_Qzaa5entBogjLJZciO9-2" value="&lt;font style=&quot;font-size: 16px;&quot;&gt;Logo&lt;/font&gt;" style="ellipse;whiteSpace=wrap;html=1;aspect=fixed;" vertex="1" parent="1">
          <mxGeometry x="190" y="160" width="140" height="140" as="geometry" />
        </mxCell>
        <mxCell id="_Qzaa5entBogjLJZciO9-4" value="Moto" style="rounded=0;whiteSpace=wrap;html=1;fontSize=16;" vertex="1" parent="1">
          <mxGeometry x="400" y="195" width="370" height="60" as="geometry" />
        </mxCell>
        <mxCell id="_Qzaa5entBogjLJZciO9-5" value="" style="rounded=0;whiteSpace=wrap;html=1;fontSize=16;" vertex="1" parent="1">
          <mxGeometry x="160" y="330" width="680" height="50" as="geometry" />
        </mxCell>
        <mxCell id="_Qzaa5entBogjLJZciO9-6" value="Academics" style="rounded=0;whiteSpace=wrap;html=1;fontSize=16;" vertex="1" parent="1">
          <mxGeometry x="250" y="330" width="120" height="50" as="geometry" />
        </mxCell>
        <mxCell id="_Qzaa5entBogjLJZciO9-7" value="Calendar" style="rounded=0;whiteSpace=wrap;html=1;fontSize=16;" vertex="1" parent="1">
          <mxGeometry x="380" y="330" width="120" height="50" as="geometry" />
        </mxCell>
        <mxCell id="_Qzaa5entBogjLJZciO9-8" value="About" style="rounded=0;whiteSpace=wrap;html=1;fontSize=16;" vertex="1" parent="1">
          <mxGeometry x="510" y="330" width="120" height="50" as="geometry" />
        </mxCell>
        <mxCell id="_Qzaa5entBogjLJZciO9-9" value="Contact us" style="rounded=0;whiteSpace=wrap;html=1;fontSize=16;" vertex="1" parent="1">
          <mxGeometry x="640" y="330" width="120" height="50" as="geometry" />
        </mxCell>
        <mxCell id="_Qzaa5entBogjLJZciO9-10" value="" style="rounded=0;whiteSpace=wrap;html=1;fontSize=16;" vertex="1" parent="1">
          <mxGeometry x="160" y="420" width="680" height="250" as="geometry" />
        </mxCell>
        <mxCell id="_Qzaa5entBogjLJZciO9-11" value="Image describing the school" style="rounded=1;whiteSpace=wrap;html=1;fontSize=16;arcSize=6;points=[[0,0,0,0,0],[0,0.25,0,0,0],[0,0.5,0,0,0],[0,0.75,0,0,0],[0,1,0,0,0],[0.25,0,0,0,0],[0.25,1,0,0,0],[0.5,0,0,0,0],[0.5,1,0,0,0],[0.75,0,0,0,0],[0.75,1,0,0,0],[1,0,0,0,0],[1,0.25,0,0,0],[1,0.5,0,0,0],[1,0.75,0,0,0],[1,1,0,0,0]];" vertex="1" parent="1">
          <mxGeometry x="540" y="460" width="250" height="170" as="geometry" />
        </mxCell>
        <mxCell id="_Qzaa5entBogjLJZciO9-12" value="space" style="rounded=0;whiteSpace=wrap;html=1;fontSize=16;" vertex="1" parent="1">
          <mxGeometry x="160" y="380" width="680" height="40" as="geometry" />
        </mxCell>
        <mxCell id="_Qzaa5entBogjLJZciO9-13" value="&lt;p&gt;A small text describing the essence of the school. This is a short version of the information on the about page&lt;br&gt;&lt;/p&gt;" style="text;html=1;strokeColor=none;fillColor=none;spacing=5;spacingTop=-20;whiteSpace=wrap;overflow=hidden;rounded=0;fontSize=16;" vertex="1" parent="1">
          <mxGeometry x="210" y="515" width="280" height="70" as="geometry" />
        </mxCell>
        <mxCell id="_Qzaa5entBogjLJZciO9-14" value="A small heading" style="rounded=0;whiteSpace=wrap;html=1;fontSize=16;" vertex="1" parent="1">
          <mxGeometry x="210" y="475" width="120" height="40" as="geometry" />
        </mxCell>
        <mxCell id="_Qzaa5entBogjLJZciO9-15" value="&lt;font style=&quot;font-size: 12px;&quot;&gt;Read more button&lt;/font&gt;" style="rounded=0;whiteSpace=wrap;html=1;fontSize=16;" vertex="1" parent="1">
          <mxGeometry x="210" y="585" width="100" height="30" as="geometry" />
        </mxCell>
        <mxCell id="_Qzaa5entBogjLJZciO9-16" value="" style="rounded=0;whiteSpace=wrap;html=1;fontSize=12;" vertex="1" parent="1">
          <mxGeometry x="160" y="710" width="680" height="420" as="geometry" />
        </mxCell>
        <mxCell id="_Qzaa5entBogjLJZciO9-17" value="&lt;font style=&quot;font-size: 16px;&quot;&gt;Students of the month&lt;/font&gt;" style="rounded=0;whiteSpace=wrap;html=1;fontSize=12;" vertex="1" parent="1">
          <mxGeometry x="200" y="740" width="200" height="50" as="geometry" />
        </mxCell>
        <mxCell id="_Qzaa5entBogjLJZciO9-18" value="space" style="rounded=0;whiteSpace=wrap;html=1;fontSize=16;" vertex="1" parent="1">
          <mxGeometry x="160" y="670" width="680" height="40" as="geometry" />
        </mxCell>
        <mxCell id="_Qzaa5entBogjLJZciO9-20" value="" style="rounded=1;whiteSpace=wrap;html=1;fontSize=16;arcSize=3;" vertex="1" parent="1">
          <mxGeometry x="190" y="810" width="200" height="290" as="geometry" />
        </mxCell>
        <mxCell id="_Qzaa5entBogjLJZciO9-21" value="" style="rounded=1;whiteSpace=wrap;html=1;fontSize=16;arcSize=1;" vertex="1" parent="1">
          <mxGeometry x="200" y="820" width="180" height="180" as="geometry" />
        </mxCell>
        <mxCell id="_Qzaa5entBogjLJZciO9-23" value="some text about the student" style="rounded=0;whiteSpace=wrap;html=1;fontSize=16;" vertex="1" parent="1">
          <mxGeometry x="200" y="1010" width="180" height="80" as="geometry" />
        </mxCell>
        <mxCell id="_Qzaa5entBogjLJZciO9-24" value="" style="rounded=1;whiteSpace=wrap;html=1;fontSize=16;arcSize=3;" vertex="1" parent="1">
          <mxGeometry x="400" y="810" width="200" height="290" as="geometry" />
        </mxCell>
        <mxCell id="_Qzaa5entBogjLJZciO9-25" value="" style="rounded=1;whiteSpace=wrap;html=1;fontSize=16;arcSize=1;" vertex="1" parent="1">
          <mxGeometry x="410" y="820" width="180" height="180" as="geometry" />
        </mxCell>
        <mxCell id="_Qzaa5entBogjLJZciO9-26" value="some text about the student" style="rounded=0;whiteSpace=wrap;html=1;fontSize=16;" vertex="1" parent="1">
          <mxGeometry x="410" y="1010" width="180" height="80" as="geometry" />
        </mxCell>
        <mxCell id="_Qzaa5entBogjLJZciO9-27" value="" style="rounded=1;whiteSpace=wrap;html=1;fontSize=16;arcSize=3;" vertex="1" parent="1">
          <mxGeometry x="610" y="810" width="200" height="290" as="geometry" />
        </mxCell>
        <mxCell id="_Qzaa5entBogjLJZciO9-28" value="" style="rounded=1;whiteSpace=wrap;html=1;fontSize=16;arcSize=1;" vertex="1" parent="1">
          <mxGeometry x="620" y="820" width="180" height="180" as="geometry" />
        </mxCell>
        <mxCell id="_Qzaa5entBogjLJZciO9-29" value="some text about the student" style="rounded=0;whiteSpace=wrap;html=1;fontSize=16;" vertex="1" parent="1">
          <mxGeometry x="620" y="1010" width="180" height="80" as="geometry" />
        </mxCell>
        <mxCell id="_Qzaa5entBogjLJZciO9-30" value="space" style="rounded=0;whiteSpace=wrap;html=1;fontSize=16;" vertex="1" parent="1">
          <mxGeometry x="160" y="1130" width="680" height="40" as="geometry" />
        </mxCell>
        <mxCell id="_Qzaa5entBogjLJZciO9-31" value="" style="rounded=0;whiteSpace=wrap;html=1;fontSize=12;" vertex="1" parent="1">
          <mxGeometry x="160" y="1170" width="680" height="420" as="geometry" />
        </mxCell>
        <mxCell id="_Qzaa5entBogjLJZciO9-32" value="&lt;font style=&quot;font-size: 16px;&quot;&gt;What people say about us&lt;/font&gt;" style="rounded=0;whiteSpace=wrap;html=1;fontSize=12;" vertex="1" parent="1">
          <mxGeometry x="400" y="1190" width="200" height="50" as="geometry" />
        </mxCell>
        <mxCell id="_Qzaa5entBogjLJZciO9-44" value="&lt;p&gt;Lorem ipsum dolor sit amet, consectetur adipisicing elit, sed do &lt;br&gt;&lt;/p&gt;" style="text;html=1;strokeColor=none;fillColor=none;spacing=5;spacingTop=-20;whiteSpace=wrap;overflow=hidden;rounded=0;fontSize=16;" vertex="1" parent="1">
          <mxGeometry x="300" y="1270" width="190" height="70" as="geometry" />
        </mxCell>
        <mxCell id="_Qzaa5entBogjLJZciO9-45" value="&lt;p&gt;Lorem ipsum dolor sit amet, consectetur adipisicing elit, sed do &lt;br&gt;&lt;/p&gt;" style="text;html=1;strokeColor=none;fillColor=none;spacing=5;spacingTop=-20;whiteSpace=wrap;overflow=hidden;rounded=0;fontSize=16;" vertex="1" parent="1">
          <mxGeometry x="380" y="1380" width="190" height="70" as="geometry" />
        </mxCell>
        <mxCell id="_Qzaa5entBogjLJZciO9-46" value="&lt;p&gt;Lorem ipsum dolor sit amet, consectetur adipisicing elit, sed do &lt;br&gt;&lt;/p&gt;" style="text;html=1;strokeColor=none;fillColor=none;spacing=5;spacingTop=-20;whiteSpace=wrap;overflow=hidden;rounded=0;fontSize=16;" vertex="1" parent="1">
          <mxGeometry x="175" y="1360" width="190" height="70" as="geometry" />
        </mxCell>
        <mxCell id="_Qzaa5entBogjLJZciO9-47" value="&lt;p&gt;Lorem ipsum dolor sit amet, consectetur adipisicing elit, sed do &lt;br&gt;&lt;/p&gt;" style="text;html=1;strokeColor=none;fillColor=none;spacing=5;spacingTop=-20;whiteSpace=wrap;overflow=hidden;rounded=0;fontSize=16;" vertex="1" parent="1">
          <mxGeometry x="580" y="1460" width="190" height="70" as="geometry" />
        </mxCell>
        <mxCell id="_Qzaa5entBogjLJZciO9-48" value="&lt;p&gt;Lorem ipsum dolor sit amet, consectetur adipisicing elit, sed do &lt;br&gt;&lt;/p&gt;" style="text;html=1;strokeColor=none;fillColor=none;spacing=5;spacingTop=-20;whiteSpace=wrap;overflow=hidden;rounded=0;fontSize=16;" vertex="1" parent="1">
          <mxGeometry x="270" y="1490" width="190" height="70" as="geometry" />
        </mxCell>
        <mxCell id="_Qzaa5entBogjLJZciO9-49" value="&lt;p&gt;Lorem ipsum dolor sit amet, consectetur adipisicing elit, sed do &lt;br&gt;&lt;/p&gt;" style="text;html=1;strokeColor=none;fillColor=none;spacing=5;spacingTop=-20;whiteSpace=wrap;overflow=hidden;rounded=0;fontSize=16;" vertex="1" parent="1">
          <mxGeometry x="630" y="1210" width="190" height="70" as="geometry" />
        </mxCell>
        <mxCell id="_Qzaa5entBogjLJZciO9-50" value="&lt;p&gt;Lorem ipsum dolor sit amet, consectetur adipisicing elit, sed do &lt;br&gt;&lt;/p&gt;" style="text;html=1;strokeColor=none;fillColor=none;spacing=5;spacingTop=-20;whiteSpace=wrap;overflow=hidden;rounded=0;fontSize=16;" vertex="1" parent="1">
          <mxGeometry x="540" y="1290" width="190" height="70" as="geometry" />
        </mxCell>
      </root>
    </mxGraphModel>
  </diagram>
</mxfile>
